<svg viewBox="0 0 40 40" fill="none" xmlns="http://www.w3.org/2000/svg">
<path d="M0 20C0 8.95431 8.95431 0 20 0C31.0457 0 40 8.95431 40 20C40 31.0457 31.0457 40 20 40C8.95431 40 0 31.0457 0 20Z" fill="#262429"/>
<path d="M28.9138 16.1815C28.1292 16.6616 27.4792 17.333 27.0248 18.1328C26.5704 18.9326 26.3264 19.8346 26.3155 20.7544C26.3186 21.7896 26.6253 22.8011 27.1976 23.6637C27.7699 24.5263 28.5827 25.2021 29.5353 25.6073C29.1597 26.819 28.6039 27.9673 27.8865 29.0136C26.86 30.4912 25.7867 31.9688 24.1536 31.9688C22.5204 31.9688 22.1004 31.02 20.2183 31.02C18.3828 31.02 17.7297 32 16.2369 32C14.7442 32 13.7019 30.6312 12.5043 28.9514C10.9221 26.5982 10.0526 23.8384 10 21.0032C10 16.3367 13.0331 13.8639 16.0194 13.8639C17.606 13.8639 18.9279 14.906 19.9232 14.906C20.872 14.906 22.3497 13.8017 24.154 13.8017C25.0816 13.7777 26.001 13.9822 26.8311 14.3972C27.6611 14.8122 28.3763 15.425 28.9138 16.1815ZM20.048 13.5372C19.9384 13.5369 19.829 13.5265 19.7213 13.5062C19.6909 13.363 19.6753 13.217 19.6746 13.0706C19.7266 11.8668 20.1937 10.7181 20.9968 9.8198C21.8981 8.78452 23.1614 8.13339 24.5275 8C24.56 8.15863 24.5756 8.32025 24.5742 8.48216C24.5445 9.71003 24.0943 10.8905 23.2987 11.8263C22.9011 12.3169 22.4079 12.7216 21.8491 13.0157C21.2903 13.3098 20.6775 13.4873 20.048 13.5372Z" fill="#F7F7F8"/>
</svg>
