<svg viewBox="0 0 40 40" fill="none" xmlns="http://www.w3.org/2000/svg">
<g clip-path="url(#clip0_4446_1910)">
<path d="M0 0H40V40H0V0Z" fill="white"/>
<path d="M30.6667 20.2533C30.6667 19.4644 30.5956 18.7067 30.4667 17.98H20V22.2822H25.9778C25.8505 22.9613 25.5873 23.6076 25.2039 24.1824C24.8205 24.7571 24.3248 25.2484 23.7467 25.6267V28.4244H27.3533C29.4556 26.4844 30.6667 23.6356 30.6667 20.2533Z" fill="#4285F4"/>
<path d="M20.0001 31.1111C23.0001 31.1111 25.5156 30.1222 27.3556 28.4244L23.7467 25.6244C22.7579 26.2911 21.4956 26.6978 20.0001 26.6978C17.1112 26.6978 14.6556 24.7467 13.7779 22.12H10.0801V24.9889C11.0032 26.8289 12.4199 28.3759 14.1717 29.457C15.9235 30.5382 17.9415 31.1109 20.0001 31.1111Z" fill="#34A853"/>
<path d="M13.7777 22.1111C13.5554 21.4444 13.4221 20.7378 13.4221 20C13.4221 19.2622 13.5554 18.5556 13.7777 17.8889V15.02H10.0799C9.29429 16.5625 8.88477 18.269 8.88477 20C8.88477 21.731 9.29429 23.4375 10.0799 24.98L12.9599 22.7356L13.7777 22.1111Z" fill="#FBBC05"/>
<path d="M20.0001 13.3111C21.6356 13.3111 23.089 13.8778 24.2534 14.9689L27.4334 11.7889C25.5045 9.98889 23.0001 8.88889 20.0001 8.88889C17.9401 8.88914 15.9209 9.46307 14.1688 10.5464C12.4167 11.6297 11.0009 13.1795 10.0801 15.0222L13.7779 17.8889C14.6556 15.2622 17.1112 13.3111 20.0001 13.3111Z" fill="#EA4335"/>
</g>
<defs>
<clipPath id="clip0_4446_1910">
<rect width="40" height="40" rx="20" fill="white"/>
</clipPath>
</defs>
</svg>
