<svg width="48" height="48" viewBox="0 0 48 48" fill="none" xmlns="http://www.w3.org/2000/svg">
<g clip-path="url(#clip0_4433_8499)">
<mask id="mask0_4433_8499" style="mask-type:luminance" maskUnits="userSpaceOnUse" x="0" y="0" width="48" height="48">
<path d="M0 0H48V48H0V0Z" fill="white"/>
</mask>
<g mask="url(#mask0_4433_8499)">
<path d="M0 0H48V48H0V0Z" fill="url(#paint0_linear_4433_8499)"/>
<path d="M20.269 20.1867V18.4373C20.4423 18.4267 20.6157 18.416 20.789 18.416C25.581 18.264 28.7223 22.5413 28.7223 22.5413C28.7223 22.5413 25.333 27.248 21.6957 27.248C21.2077 27.248 20.7357 27.1707 20.2823 27.0213V21.7067C22.149 21.9333 22.525 22.7547 23.637 24.6213L26.133 22.5253C26.133 22.5253 24.3063 20.1413 21.2423 20.1413C20.9173 20.1339 20.5921 20.1482 20.269 20.184V20.1867ZM20.269 14.4V17.0133L20.789 16.9813C27.4477 16.752 31.8023 22.4427 31.8023 22.4427C31.8023 22.4427 26.813 28.5093 21.6183 28.5093C21.165 28.5093 20.7223 28.4667 20.2797 28.392V30.0107C20.6477 30.0533 21.0263 30.088 21.3917 30.088C26.229 30.088 29.7277 27.6133 33.117 24.7013C33.677 25.1547 35.9783 26.2427 36.453 26.7173C33.237 29.416 25.733 31.5867 21.4797 31.5867C21.069 31.5867 20.6797 31.5653 20.2903 31.5227V33.8H38.6663V14.4H20.269ZM20.269 27.0213V28.4027C15.7997 27.6027 14.5597 22.9493 14.5597 22.9493C14.5597 22.9493 16.7063 20.576 20.269 20.1867V21.6987H20.2583C18.3917 21.472 16.925 23.2187 16.925 23.2187C16.925 23.2187 17.7517 26.168 20.269 27.0213ZM12.3357 22.7547C12.3357 22.7547 14.9783 18.848 20.2823 18.4373V17.0133C14.405 17.488 9.33301 22.4533 9.33301 22.4533C9.33301 22.4533 12.205 30.768 20.269 31.5227V30.0107C14.3543 29.2773 12.3357 22.7573 12.3357 22.7573V22.7547Z" fill="white"/>
</g>
</g>
<defs>
<linearGradient id="paint0_linear_4433_8499" x1="42.6667" y1="-1.33333" x2="14.6667" y2="48" gradientUnits="userSpaceOnUse">
<stop stop-color="#85B737"/>
<stop offset="1" stop-color="#597B20"/>
</linearGradient>
<clipPath id="clip0_4433_8499">
<rect width="48" height="48" rx="24" fill="white"/>
</clipPath>
</defs>
</svg>
