<svg width="40" height="40" viewBox="0 0 40 40" fill="none" xmlns="http://www.w3.org/2000/svg">
<g clip-path="url(#clip0_4446_1872)">
<mask id="mask0_4446_1872" style="mask-type:luminance" maskUnits="userSpaceOnUse" x="0" y="0" width="40" height="40">
<path d="M0 0H40V40H0V0Z" fill="white"/>
</mask>
<g mask="url(#mask0_4446_1872)">
<path d="M0 0H40V40H0V0Z" fill="url(#paint0_linear_4446_1872)"/>
<path d="M16.8907 16.8222V15.3644C17.0351 15.3556 17.1796 15.3467 17.324 15.3467C21.3173 15.22 23.9351 18.7844 23.9351 18.7844C23.9351 18.7844 21.1107 22.7067 18.0796 22.7067C17.6729 22.7067 17.2796 22.6422 16.9018 22.5178V18.0889C18.4573 18.2778 18.7707 18.9622 19.6973 20.5178L21.7773 18.7711C21.7773 18.7711 20.2551 16.7844 17.7018 16.7844C17.4309 16.7783 17.16 16.7901 16.8907 16.82V16.8222ZM16.8907 12V14.1778L17.324 14.1511C22.8729 13.96 26.5018 18.7022 26.5018 18.7022C26.5018 18.7022 22.344 23.7578 18.0151 23.7578C17.6373 23.7578 17.2685 23.7222 16.8996 23.66V25.0089C17.2062 25.0444 17.5218 25.0733 17.8262 25.0733C21.8573 25.0733 24.7729 23.0111 27.5973 20.5844C28.064 20.9622 29.9818 21.8689 30.3773 22.2644C27.6973 24.5133 21.444 26.3222 17.8996 26.3222C17.5573 26.3222 17.2329 26.3044 16.9085 26.2689V28.1667H32.2218V12H16.8907ZM16.8907 22.5178V23.6689C13.1662 23.0022 12.1329 19.1244 12.1329 19.1244C12.1329 19.1244 13.9218 17.1467 16.8907 16.8222V18.0822H16.8818C15.3262 17.8933 14.104 19.3489 14.104 19.3489C14.104 19.3489 14.7929 21.8067 16.8907 22.5178ZM10.2796 18.9622C10.2796 18.9622 12.4818 15.7067 16.9018 15.3644V14.1778C12.004 14.5733 7.77734 18.7111 7.77734 18.7111C7.77734 18.7111 10.1707 25.64 16.8907 26.2689V25.0089C11.9618 24.3978 10.2796 18.9644 10.2796 18.9644V18.9622Z" fill="white"/>
</g>
</g>
<defs>
<linearGradient id="paint0_linear_4446_1872" x1="35.5556" y1="-1.11111" x2="12.2222" y2="40" gradientUnits="userSpaceOnUse">
<stop stop-color="#85B737"/>
<stop offset="1" stop-color="#597B20"/>
</linearGradient>
<clipPath id="clip0_4446_1872">
<rect width="40" height="40" rx="20" fill="white"/>
</clipPath>
</defs>
</svg>
