<svg xmlns="http://www.w3.org/2000/svg" viewBox="0 0 18 18">
    <g clip-path="url(#a)">
      <path fill="#fff" d="M0 0h18v18H0V0Z" />
      <path fill="#85D0FA"
        d="M12.873 6.558c-.01.065-.022.131-.035.2-.45 2.304-1.985 3.1-3.947 3.1H7.477l-.065.41-.511 3.243-.195 1.214H9.14l.078-.45.423-2.593.353.002h.264c1.717 0 3.06-.697 3.453-2.713.165-.842.08-1.545-.354-2.04a1.696 1.696 0 0 0-.486-.373Z" />
      <path fill="#003087"
        d="M7.996 6.57a.424.424 0 0 1 .421-.36h2.669c.316 0 .61.02.88.064a4.045 4.045 0 0 1 .437.097 2.435 2.435 0 0 1 .47.187c.134-.852-.001-1.431-.462-1.956-.508-.578-1.424-.826-2.597-.826H6l-1.49 9.396-.055.339h2.446l.528-3.347.567-3.594Z" />
      <path fill="#4195F7" fill-rule="evenodd"
        d="M12.19 6.316a3.54 3.54 0 0 1 .313.086c.133.044.256.096.37.156a5.962 5.962 0 0 1-.105.514c-.524 2.062-2.007 2.786-3.877 2.786H7.477l.52-3.289.057-.36h3.032a5.492 5.492 0 0 1 1.105.107Z"
        clip-rule="evenodd" />
    </g>
    <defs>
      <clipPath id="a">
        <path fill="#fff" d="M0 0h18v18H0z" />
      </clipPath>
    </defs>
  </svg>