<svg xmlns="http://www.w3.org/2000/svg" viewBox="0 0 18 18">
    <g clip-path="url(#a)">
      <path fill="#FF4500" d="M0 0h18v18H0V0Z"/>
      <path fill="url(#b)" d="M14.104 11.016a2.1 2.1 0 0 1-2.102-2.101 2.1 2.1 0 0 1 2.102-2.102 2.1 2.1 0 0 1 2.102 2.102 2.1 2.1 0 0 1-2.102 2.1Z"/>
      <path fill="url(#c)" d="M3.899 11.016a2.099 2.099 0 0 1-2.102-2.101A2.1 2.1 0 0 1 3.9 6.813 2.1 2.1 0 0 1 6 8.915a2.1 2.1 0 0 1-2.102 2.1Z"/>
      <path fill="url(#d)" d="M9.006 15.22c-3.318 0-6-2.012-6-4.5 0-2.489 2.682-4.5 6-4.5 3.32 0 6.001 2.011 6.001 4.5 0 2.488-2.682 4.5-6 4.5Z"/>
      <path fill="#842123" d="M7.233 10.282c-.036.762-.542 1.04-1.131 1.04-.59 0-1.038-.391-1.003-1.153.035-.764.54-1.268 1.13-1.268.59 0 1.039.618 1.004 1.38Zm5.682-.114c.035.763-.414 1.153-1.004 1.153-.588 0-1.095-.277-1.13-1.04-.035-.761.414-1.38 1.003-1.38.59 0 1.096.504 1.13 1.268Z"/>
      <path fill="url(#e)" d="M7.233 10.349c-.033.713-.507.972-1.058.972-.552 0-.971-.388-.939-1.1.033-.715.507-1.181 1.058-1.181.55 0 .972.595.939 1.309Z"/>
      <path fill="url(#f)" d="M10.781 10.349c.033.713.506.972 1.057.972.552 0 .972-.388.94-1.1-.033-.715-.507-1.181-1.059-1.181-.551 0-.972.595-.938 1.309Z"/>
      <path fill="#FFC49C" d="M6.637 9.953c-.129 0-.233-.115-.233-.256 0-.14.104-.255.233-.255.13 0 .234.115.234.255s-.104.256-.234.256Zm5.55 0c-.13 0-.233-.115-.233-.256 0-.14.103-.255.233-.255.128 0 .233.115.233.255s-.105.256-.233.256Z"/>
      <path fill="#BBCFDA" d="M9.006 11.83c-.743 0-1.457.035-2.116.1a.167.167 0 0 0-.14.23 2.446 2.446 0 0 0 2.256 1.473 2.446 2.446 0 0 0 2.258-1.473.167.167 0 0 0-.14-.23c-.66-.065-1.373-.1-2.118-.1Z"/>
      <path fill="#fff" d="M9.006 11.995c-.742 0-1.452.037-2.11.103a.168.168 0 0 0-.14.232 2.44 2.44 0 0 0 4.501 0 .17.17 0 0 0-.14-.232 20.973 20.973 0 0 0-2.11-.103Z"/>
      <path fill="url(#g)" d="M9.006 11.91c-.729 0-1.43.035-2.077.1a.167.167 0 0 0-.137.23 2.401 2.401 0 0 0 4.43 0 .167.167 0 0 0-.137-.23 20.76 20.76 0 0 0-2.079-.1Z"/>
      <path fill="url(#h)" d="M12.293 5.608a1.489 1.489 0 1 1 0-2.98 1.49 1.49 0 1 1 0 2.98Z"/>
      <path fill="url(#i)" d="M8.985 6.41c-.178 0-.323-.075-.323-.19a2.423 2.423 0 0 1 2.42-2.42.323.323 0 1 1 0 .647c-.977 0-1.773.795-1.773 1.774 0 .114-.145.19-.324.19v-.002Z"/>
      <path fill="#FF6101" d="M6.841 10.702c0 .276-.293.4-.656.4-.363 0-.657-.124-.657-.4s.294-.5.657-.5c.363 0 .656.224.656.5Zm5.644 0c0 .276-.293.4-.656.4-.363 0-.656-.124-.656-.4s.293-.5.656-.5c.363 0 .656.224.656.5Z"/>
    </g>
    <defs>
      <radialGradient id="b" cx="0" cy="0" r="1" gradientTransform="translate(14.149 7.663) scale(4.24901)" gradientUnits="userSpaceOnUse">
        <stop stop-color="#FEFFFF"/>
        <stop offset=".4" stop-color="#FEFFFF"/>
        <stop offset=".51" stop-color="#F9FCFC"/>
        <stop offset=".62" stop-color="#EDF3F5"/>
        <stop offset=".7" stop-color="#DEE9EC"/>
        <stop offset=".72" stop-color="#D8E4E8"/>
        <stop offset=".76" stop-color="#CCD8DF"/>
        <stop offset=".8" stop-color="#C8D5DD"/>
        <stop offset=".83" stop-color="#CCD6DE"/>
        <stop offset=".85" stop-color="#D8DBE2"/>
        <stop offset=".88" stop-color="#EDE3E9"/>
        <stop offset=".9" stop-color="#FFEBEF"/>
      </radialGradient>
      <radialGradient id="c" cx="0" cy="0" r="1" gradientTransform="translate(3.943 2.63) scale(4.24901)" gradientUnits="userSpaceOnUse">
        <stop stop-color="#FEFFFF"/>
        <stop offset=".4" stop-color="#FEFFFF"/>
        <stop offset=".51" stop-color="#F9FCFC"/>
        <stop offset=".62" stop-color="#EDF3F5"/>
        <stop offset=".7" stop-color="#DEE9EC"/>
        <stop offset=".72" stop-color="#D8E4E8"/>
        <stop offset=".76" stop-color="#CCD8DF"/>
        <stop offset=".8" stop-color="#C8D5DD"/>
        <stop offset=".83" stop-color="#CCD6DE"/>
        <stop offset=".85" stop-color="#D8DBE2"/>
        <stop offset=".88" stop-color="#EDE3E9"/>
        <stop offset=".9" stop-color="#FFEBEF"/>
      </radialGradient>
      <radialGradient id="d" cx="0" cy="0" r="1" gradientTransform="translate(9.136 7.126) scale(12.8167)" gradientUnits="userSpaceOnUse">
        <stop stop-color="#FEFFFF"/>
        <stop offset=".4" stop-color="#FEFFFF"/>
        <stop offset=".51" stop-color="#F9FCFC"/>
        <stop offset=".62" stop-color="#EDF3F5"/>
        <stop offset=".7" stop-color="#DEE9EC"/>
        <stop offset=".72" stop-color="#D8E4E8"/>
        <stop offset=".76" stop-color="#CCD8DF"/>
        <stop offset=".8" stop-color="#C8D5DD"/>
        <stop offset=".83" stop-color="#CCD6DE"/>
        <stop offset=".85" stop-color="#D8DBE2"/>
        <stop offset=".88" stop-color="#EDE3E9"/>
        <stop offset=".9" stop-color="#FFEBEF"/>
      </radialGradient>
      <radialGradient id="e" cx="0" cy="0" r="1" gradientTransform="translate(6.288 10.664) scale(1.07083)" gradientUnits="userSpaceOnUse">
        <stop stop-color="#F60"/>
        <stop offset=".5" stop-color="#FF4500"/>
        <stop offset=".7" stop-color="#FC4301"/>
        <stop offset=".82" stop-color="#F43F07"/>
        <stop offset=".92" stop-color="#E53812"/>
        <stop offset="1" stop-color="#D4301F"/>
      </radialGradient>
      <radialGradient id="f" cx="0" cy="0" r="1" gradientTransform="rotate(180 5.863 5.332) scale(1.07083)" gradientUnits="userSpaceOnUse">
        <stop stop-color="#F60"/>
        <stop offset=".5" stop-color="#FF4500"/>
        <stop offset=".7" stop-color="#FC4301"/>
        <stop offset=".82" stop-color="#F43F07"/>
        <stop offset=".92" stop-color="#E53812"/>
        <stop offset="1" stop-color="#D4301F"/>
      </radialGradient>
      <radialGradient id="g" cx="0" cy="0" r="1" gradientTransform="translate(8.996 13.957) scale(3.77593)" gradientUnits="userSpaceOnUse">
        <stop stop-color="#172E35"/>
        <stop offset=".29" stop-color="#0E1C21"/>
        <stop offset=".73" stop-color="#030708"/>
        <stop offset="1"/>
      </radialGradient>
      <radialGradient id="h" cx="0" cy="0" r="1" gradientTransform="translate(12.326 2.745) scale(3.31452)" gradientUnits="userSpaceOnUse">
        <stop stop-color="#FEFFFF"/>
        <stop offset=".4" stop-color="#FEFFFF"/>
        <stop offset=".51" stop-color="#F9FCFC"/>
        <stop offset=".62" stop-color="#EDF3F5"/>
        <stop offset=".7" stop-color="#DEE9EC"/>
        <stop offset=".72" stop-color="#D8E4E8"/>
        <stop offset=".76" stop-color="#CCD8DF"/>
        <stop offset=".8" stop-color="#C8D5DD"/>
        <stop offset=".83" stop-color="#CCD6DE"/>
        <stop offset=".85" stop-color="#D8DBE2"/>
        <stop offset=".88" stop-color="#EDE3E9"/>
        <stop offset=".9" stop-color="#FFEBEF"/>
      </radialGradient>
      <radialGradient id="i" cx="0" cy="0" r="1" gradientTransform="translate(10.944 6.09) scale(2.71677)" gradientUnits="userSpaceOnUse">
        <stop offset=".48" stop-color="#7A9299"/>
        <stop offset=".67" stop-color="#172E35"/>
        <stop offset=".75"/>
        <stop offset=".82" stop-color="#172E35"/>
      </radialGradient>
      <clipPath id="a">
        <path fill="#fff" d="M0 0h18v18H0z"/>
      </clipPath>
    </defs>
  </svg>
  