<svg viewBox="0 0 40 40" fill="none" xmlns="http://www.w3.org/2000/svg">
<g clip-path="url(#clip0_4446_1947)">
<mask id="mask0_4446_1947" style="mask-type:luminance" maskUnits="userSpaceOnUse" x="0" y="0" width="40" height="40">
<path d="M0 0H40V40H0V0Z" fill="white"/>
</mask>
<g mask="url(#mask0_4446_1947)">
<path d="M0 0H40V40H0V0Z" fill="#E31937"/>
<path d="M20.0005 33.3333L23.3339 15.5556C26.2983 15.5556 27.0094 16.16 27.145 17.4933C27.145 17.4933 29.1316 16.7489 30.1361 15.2356C26.2227 13.4156 22.2227 13.3333 22.2227 13.3333L20.0005 16.1111L17.7783 13.3333C17.7783 13.3333 13.7783 13.4156 9.86719 15.2356C10.8672 16.7467 12.8561 17.4933 12.8561 17.4933C12.9916 16.16 13.7227 15.5578 16.6672 15.5556L20.0005 33.3333Z" fill="white"/>
<path d="M19.9998 12.4622C23.5837 12.4214 27.1352 13.1449 30.4176 14.5844C30.9109 13.6889 31.1109 13.3333 31.1109 13.3333C27.0598 11.7244 23.2664 11.1244 19.9998 11.1111C16.7331 11.1244 12.9398 11.7244 8.88867 13.3333C8.88867 13.3333 9.14201 13.7778 9.58423 14.5844C12.8659 13.1451 16.4166 12.4216 19.9998 12.4622Z" fill="white"/>
</g>
</g>
<defs>
<clipPath id="clip0_4446_1947">
<rect width="40" height="40" rx="20" fill="white"/>
</clipPath>
</defs>
</svg>
