<svg width="35" height="36" viewBox="0 0 35 36" fill="none" xmlns="http://www.w3.org/2000/svg">
<path d="M29.1673 1.33333H32.5007C33.4211 1.33333 34.1673 2.07952 34.1673 2.99999V6.33333M32.5007 2.99999C19.2648 13.6523 12.4042 16.5216 0.833984 18M27.5007 14.6667V31.3333C27.5007 33.1743 28.993 34.6667 30.834 34.6667C32.6749 34.6667 34.1673 33.1743 34.1673 31.3333V14.6667C34.1673 12.8257 32.6749 11.3333 30.834 11.3333C28.993 11.3333 27.5007 12.8257 27.5007 14.6667ZM0.833985 28L0.833984 31.3333C0.833984 33.1743 2.32637 34.6667 4.16732 34.6667C6.00827 34.6667 7.50065 33.1743 7.50065 31.3333L7.50065 28C7.50065 26.159 6.00827 24.6667 4.16732 24.6667C2.32637 24.6667 0.833985 26.159 0.833985 28ZM14.1673 21.3333V31.3333C14.1673 33.1743 15.6597 34.6667 17.5007 34.6667C19.3416 34.6667 20.834 33.1743 20.834 31.3333V21.3333C20.834 19.4924 19.3416 18 17.5007 18C15.6597 18 14.1673 19.4924 14.1673 21.3333Z" stroke="url(#paint0_angular_4429_276)" stroke-width="1.5" stroke-linecap="round" stroke-linejoin="round"/>
<defs>
<radialGradient id="paint0_angular_4429_276" cx="0" cy="0" r="1" gradientUnits="userSpaceOnUse" gradientTransform="translate(8.24574 38.9985) rotate(39.2781) scale(11.956 22.6069)">
<stop offset="0.120851" stop-color="#90EFD5"/>
<stop offset="0.361134" stop-color="#EAE6FF"/>
<stop offset="0.760766" stop-color="#8A6FF6"/>
</radialGradient>
</defs>
</svg>
