<svg xmlns="http://www.w3.org/2000/svg" fill="none" viewBox="0 0 360 240">
    <path fill="#F7F7F8" stroke="#00112C" stroke-linecap="round" stroke-linejoin="round"
        stroke-width="1.5"
        d="M239.306 2H94.733A15.733 15.733 0 0 0 79 17.733v86.533A15.73 15.73 0 0 0 94.733 120h144.573a15.73 15.73 0 0 0 11.125-4.609 15.73 15.73 0 0 0 4.609-11.125V17.733A15.73 15.73 0 0 0 239.306 2" />
    <path fill="#F7F7F8" stroke="#00112C" stroke-linecap="round" stroke-linejoin="round"
        stroke-width="1.5"
        d="M239.306 120H94.733A15.73 15.73 0 0 0 79 135.734v86.533A15.735 15.735 0 0 0 94.733 238h144.573a15.734 15.734 0 0 0 15.734-15.733v-86.533a15.73 15.73 0 0 0-4.609-11.125A15.73 15.73 0 0 0 239.306 120" />
    <path fill="#fff" stroke="#00112C" stroke-linecap="round" stroke-linejoin="round"
        stroke-width="1.5" d="M245.679 120H88.346v110.133H245.68zM245.679 9.868H88.346V120H245.68z" />
    <path fill="#fff" stroke="#00112C" stroke-linecap="round" stroke-linejoin="round"
        stroke-width="1.5" d="M167.012 135.732h-62.933v78.666h62.933z" />
    <path stroke="#00112C" stroke-linecap="round" stroke-linejoin="round" stroke-width="1.5"
        d="M182.746 151.467h39.334M182.746 167.199h23.6M182.746 182.934h23.6M182.746 198.666h23.6M229.946 25.6H104.079M182.746 41.335h-78.667M182.746 57.067h-78.667M229.945 41.335h-31.467" />
    <path fill="#5A10EF"
        d="M249.511 147.533a31.47 31.47 0 0 0 30.862-37.606 31.468 31.468 0 1 0-30.862 37.606" />
    <path stroke="#fff" stroke-linecap="round" stroke-linejoin="round" stroke-width="1.5"
        d="m240.262 114.667 7.111 7.111 11.407-11.422" />
    <path fill="#FFC200"
        d="M134.052 183.326a25.5 25.5 0 0 0 8.574-.865c.236-.095 3.446-1.574 6.089-3.037a10 10 0 0 1 1.086-.315c2.249-.802 4.546-1.652 5.207-1.982s-5.082-22.923-7.19-26.951c-3.713-7.112-13.279-5.79-13.279-5.79-6.293-2.502-11.013 1.982-13.389 5.79-4.185 6.482-7.41 29.012-6.561 29.421 3.383 1.573 6.294.378 9.991 1.164.236-.393 1.275.677 2.25 1.039a23 23 0 0 0 8.087 1.573" />
    <path stroke="#00112C" stroke-linecap="round" stroke-linejoin="round" stroke-width="1.5"
        d="M134.052 183.326a25.5 25.5 0 0 0 8.574-.865c.236-.095 3.446-1.574 6.089-3.037a10 10 0 0 1 1.086-.315c2.249-.802 4.546-1.652 5.207-1.982s-5.082-22.923-7.19-26.951c-3.713-7.112-13.279-5.79-13.279-5.79-6.293-2.502-11.013 1.982-13.389 5.79-4.185 6.482-7.41 29.012-6.561 29.421 3.383 1.573 6.294.378 9.991 1.164.236-.393 1.275.677 2.25 1.039a23 23 0 0 0 8.087 1.573" />
    <path fill="#00112C" stroke="#00112C" stroke-linecap="round" stroke-linejoin="round"
        stroke-width="1.5"
        d="M167.012 201.923v12.476h-62.933v-12.445a15.1 15.1 0 0 1 3.147-4.421 17.8 17.8 0 0 1 5.113-2.942c5.365-2.328 10.29-4.515 15.734-6.576l.487-.158a20.5 20.5 0 0 1 6.388-.834h1.306a18.1 18.1 0 0 1 6.561.693c5.475 2.045 10.667 4.531 16.032 6.859a17.9 17.9 0 0 1 5.129 2.943 14.9 14.9 0 0 1 3.036 4.405" />
    <path fill="#EAB2A7" stroke="#00112C" stroke-linecap="round" stroke-linejoin="round"
        stroke-width="1.5"
        d="m140.989 173.603-11.753.158-.755 14.16h.094a14.9 14.9 0 0 0 7.19 1.73 14.7 14.7 0 0 0 7.128-1.951z" />
    <path fill="#00112C" stroke="#00112C" stroke-linecap="round" stroke-linejoin="round"
        stroke-width="1.5" d="M133.453 180.447a13.17 13.17 0 0 0 8.543.598l-1.007-7.442z" />
    <path fill="#EAB2A7" d="M123.794 164.447s-.959-5.396-4.106-3.052 1.227 8.968 5.381 9.44" />
    <path stroke="#00112C" stroke-linecap="round" stroke-linejoin="round" stroke-width="1.5"
        d="M123.794 164.447s-.959-5.396-4.106-3.052 1.227 8.968 5.381 9.44" />
    <path fill="#EAB2A7" d="M144.781 165.029s.315-5.475 3.729-3.492-.346 8.795-4.421 9.691" />
    <path stroke="#00112C" stroke-linecap="round" stroke-linejoin="round" stroke-width="1.5"
        d="M144.781 165.029s.315-5.475 3.729-3.492-.346 8.795-4.421 9.691" />
    <path fill="#EAB2A7" stroke="#00112C" stroke-linecap="round" stroke-linejoin="round"
        stroke-width="1.5"
        d="m134.32 152.317-2.879 2.014a16.8 16.8 0 0 1-8.402 2.926v14.081c0 1.936 1.857 3.839 3.021 5.224a12.7 12.7 0 0 0 5.333 4.075 9.32 9.32 0 0 0 6.939-.629 13.6 13.6 0 0 0 4.562-3.902c1.07-1.353 2.722-2.927 2.722-4.72v-14.082l-.944-.22a27.7 27.7 0 0 1-8.779-3.556z" />
    <path stroke="#00112C" stroke-linecap="round" stroke-linejoin="round" stroke-width="1.5"
        d="M128.798 167.892a3.477 3.477 0 1 0-.002-6.955 3.477 3.477 0 0 0 .002 6.955M139.18 167.892a3.475 3.475 0 0 0 3.212-2.147 3.48 3.48 0 0 0-2.534-4.741 3.48 3.48 0 0 0-3.569 1.479 3.477 3.477 0 0 0 2.891 5.409M125.336 163.581l-3.146-2.392M142.641 163.581l3.446-2.14" />
    <path stroke="#00112C" stroke-linecap="round" stroke-linejoin="round" stroke-width="1.5"
        d="M132.259 164.447c.208-.245.465-.444.755-.582a2.28 2.28 0 0 1 1.888 0c.29.138.548.337.755.582M123.055 157.255h-.96" />
</svg>