<svg width="40" height="40" viewBox="0 0 40 40" fill="none" xmlns="http://www.w3.org/2000/svg">
    <path
        d="M21.6673 33.3327H7.33399C5.12485 33.3327 3.33398 31.5418 3.33398 29.3327V10.666C3.33398 8.45687 5.12485 6.66602 7.33398 6.66602H32.6673C34.8765 6.66602 36.6673 8.45688 36.6673 10.666V19.166"
        stroke="url(#paint0_angular_3667_9637)" stroke-width="1.5" stroke-linecap="round" />
    <ellipse cx="1.66667" cy="1.66667" rx="1.66667" ry="1.66667"
        transform="matrix(1 0 0 -1 8.33398 15)" fill="url(#paint1_angular_3667_9637)" />
    <circle cx="3.33333" cy="3.33333" r="3.33333" transform="matrix(1 0 0 -1 16.666 23.334)"
        stroke="url(#paint2_angular_3667_9637)" stroke-width="1.5" />
    <circle cx="3.33333" cy="3.33333" r="3.33333" transform="matrix(1 0 0 -1 28.334 30)"
        stroke="url(#paint3_angular_3667_9637)" stroke-width="1.5" />
    <path
        d="M36.666 33.334C35.668 31.3413 33.8026 30.0007 31.666 30.0007C29.5295 30.0007 27.6641 31.3413 26.666 33.334"
        stroke="url(#paint4_angular_3667_9637)" stroke-width="1.5" stroke-linecap="round" />
    <defs>
        <radialGradient id="paint0_angular_3667_9637" cx="0" cy="0" r="1"
            gradientUnits="userSpaceOnUse"
            gradientTransform="translate(10.7457 36.7981) rotate(33.196) scale(11.0598 19.5509)">
            <stop offset="0.120851" stop-color="#90EFD5" />
            <stop offset="0.361134" stop-color="#EAE6FF" />
            <stop offset="0.760766" stop-color="#8A6FF6" />
        </radialGradient>
        <radialGradient id="paint1_angular_3667_9637" cx="0" cy="0" r="1"
            gradientUnits="userSpaceOnUse"
            gradientTransform="translate(0.741176 3.76651) rotate(39.2781) scale(1.1956 2.26069)">
            <stop offset="0.120851" stop-color="#90EFD5" />
            <stop offset="0.361134" stop-color="#EAE6FF" />
            <stop offset="0.760766" stop-color="#8A6FF6" />
        </radialGradient>
        <radialGradient id="paint2_angular_3667_9637" cx="0" cy="0" r="1"
            gradientUnits="userSpaceOnUse"
            gradientTransform="translate(1.48235 7.53303) rotate(39.2781) scale(2.39119 4.52138)">
            <stop offset="0.120851" stop-color="#90EFD5" />
            <stop offset="0.361134" stop-color="#EAE6FF" />
            <stop offset="0.760766" stop-color="#8A6FF6" />
        </radialGradient>
        <radialGradient id="paint3_angular_3667_9637" cx="0" cy="0" r="1"
            gradientUnits="userSpaceOnUse"
            gradientTransform="translate(1.48235 7.53303) rotate(39.2781) scale(2.39119 4.52138)">
            <stop offset="0.120851" stop-color="#90EFD5" />
            <stop offset="0.361134" stop-color="#EAE6FF" />
            <stop offset="0.760766" stop-color="#8A6FF6" />
        </radialGradient>
        <radialGradient id="paint4_angular_3667_9637" cx="0" cy="0" r="1"
            gradientUnits="userSpaceOnUse"
            gradientTransform="translate(28.8895 29.5675) rotate(-15.2492) scale(2.8778 2.81765)">
            <stop offset="0.120851" stop-color="#90EFD5" />
            <stop offset="0.361134" stop-color="#EAE6FF" />
            <stop offset="0.760766" stop-color="#8A6FF6" />
        </radialGradient>
    </defs>
</svg>