<svg width="56" height="54" viewBox="0 0 56 54" fill="none" xmlns="http://www.w3.org/2000/svg">
    <path
        d="M3.87912 43.2216L17.3351 36.3508C24.0563 32.9188 31.9636 32.9247 38.6799 36.3666L52.1171 43.2526C49.4913 47.7891 45.6782 51.5207 41.1159 53.999L33.799 50.2327C30.1801 48.3699 25.9151 48.362 22.2897 50.2114L14.882 53.9902C10.3165 51.5062 6.50234 47.7667 3.87912 43.2216Z"
        fill="#8A6FF6" />
    <path fill-rule="evenodd" clip-rule="evenodd"
        d="M13.6035 4.07525L13.6039 9.41679C13.6043 13.6907 11.2442 17.5975 7.50851 19.507L0.532419 23.0729C0.183129 24.8812 0 26.7506 0 28.6638C0 32.563 0.76067 36.2803 2.13841 39.6689L14.8053 33.1863C21.6289 29.6942 26.332 23.1258 27.6355 15.5995C27.6669 15.4181 27.8201 15.2844 28 15.2844C28.1799 15.2844 28.3331 15.4181 28.3645 15.5995C29.668 23.1258 34.3711 29.6942 41.1947 33.1863L53.8616 39.6689C55.2393 36.2803 56 32.563 56 28.6638C56 26.7506 55.8169 24.8812 55.4676 23.0729L48.4915 19.507C44.7558 17.5975 42.3957 13.6907 42.3961 9.41679L42.3966 4.07525C38.1898 1.48856 33.2646 0.000835307 28 0C22.7354 0.000832618 17.8102 1.48856 13.6035 4.07525Z"
        fill="#8A6FF6" />
    <path
        d="M3.87904 43.2208L17.3348 36.3501C24.0559 32.9182 31.963 32.9241 38.6792 36.3659L52.1161 43.2518C49.4904 47.7882 45.6774 51.5197 41.1151 53.998L33.7984 50.2317C30.1796 48.369 25.9147 48.3611 22.2893 50.2105L14.8817 53.9892C10.3163 51.5052 6.50222 47.7658 3.87904 43.2208Z"
        fill="#8A6FF6" />
    <path fill-rule="evenodd" clip-rule="evenodd"
        d="M13.6032 4.07518L13.6037 9.41662C13.604 13.6904 11.244 17.5972 7.50837 19.5067L0.53241 23.0725C0.183125 24.8807 0 26.7501 0 28.6632C0 32.5624 0.760656 36.2797 2.13837 39.6682L14.8051 33.1857C21.6285 29.6937 26.3315 23.1254 27.635 15.5992C27.6664 15.4179 27.8196 15.2841 27.9995 15.2841C28.1794 15.2841 28.3326 15.4179 28.364 15.5992C29.6675 23.1254 34.3705 29.6937 41.1939 33.1857L53.8606 39.6682C55.2383 36.2797 55.999 32.5624 55.999 28.6632C55.999 26.7501 55.8158 24.8807 55.4666 23.0725L48.4906 19.5067C44.755 17.5972 42.395 13.6904 42.3953 9.41662L42.3958 4.07518C38.1891 1.48854 33.264 0.000835291 27.9995 0C22.735 0.000832603 17.8098 1.48854 13.6032 4.07518Z"
        fill="#8A6FF6" />
    <g opacity="0.8">
        <mask id="mask0_3613_8053" style="mask-type:alpha" maskUnits="userSpaceOnUse" x="0" y="0"
            width="56" height="54">
            <path
                d="M3.87904 43.2208L17.3348 36.3501C24.0559 32.9182 31.963 32.9241 38.6792 36.3659L52.1161 43.2518C49.4904 47.7882 45.6774 51.5197 41.1151 53.998L33.7984 50.2317C30.1796 48.369 25.9147 48.3611 22.2893 50.2105L14.8817 53.9892C10.3163 51.5052 6.50222 47.7658 3.87904 43.2208Z"
                fill="#8A6FF6" />
            <path fill-rule="evenodd" clip-rule="evenodd"
                d="M13.6032 4.07518L13.6037 9.41662C13.604 13.6904 11.244 17.5972 7.50837 19.5067L0.53241 23.0725C0.183125 24.8807 0 26.7501 0 28.6632C0 32.5624 0.760656 36.2797 2.13837 39.6682L14.8051 33.1857C21.6285 29.6937 26.3315 23.1254 27.635 15.5992C27.6664 15.4179 27.8196 15.2841 27.9995 15.2841C28.1794 15.2841 28.3326 15.4179 28.364 15.5992C29.6675 23.1254 34.3705 29.6937 41.1939 33.1857L53.8606 39.6682C55.2383 36.2797 55.999 32.5624 55.999 28.6632C55.999 26.7501 55.8158 24.8807 55.4666 23.0725L48.4906 19.5067C44.755 17.5972 42.395 13.6904 42.3953 9.41662L42.3958 4.07518C38.1891 1.48854 33.264 0.000835291 27.9995 0C22.735 0.000832603 17.8098 1.48854 13.6032 4.07518Z"
                fill="#8A6FF6" />
        </mask>
        <g mask="url(#mask0_3613_8053)">
            <g style="mix-blend-mode:overlay">
                <g filter="url(#filter0_f_3613_8053)">
                    <path
                        d="M138.225 -92.1882L138.225 137.211L138.225 209.361L-482.636 209.361C-476.611 177.603 -438.715 114.086 -335.329 114.086C-206.096 114.086 -137.864 114.086 -57.8842 -8.01346C-2.74658 -92.188 90.0258 -93.1132 138.225 -92.1882Z"
                        fill="url(#paint0_radial_3613_8053)" />
                </g>
                <g filter="url(#filter1_f_3613_8053)">
                    <path
                        d="M64.1572 -3.99196C175.523 -23.1349 240.204 -174.393 258.623 -247.629L258.623 139.58L-470.358 139.58C-465.753 113.476 -452.293 56.2647 -435.29 36.2517C-331.15 -85.5668 -75.0505 19.9367 64.1572 -3.99196Z"
                        fill="url(#paint1_radial_3613_8053)" fill-opacity="0.8" />
                </g>
                <g filter="url(#filter2_f_3613_8053)">
                    <path
                        d="M255.594 -121.351L-225.505 128.66L-28.0201 330.792L364.697 -71.1685L255.594 -121.351Z"
                        fill="url(#paint2_radial_3613_8053)" />
                </g>
            </g>
        </g>
    </g>
    <defs>
        <filter id="filter0_f_3613_8053" x="-534.648" y="-144.345" width="724.883" height="405.717"
            filterUnits="userSpaceOnUse" color-interpolation-filters="sRGB">
            <feFlood flood-opacity="0" result="BackgroundImageFix" />
            <feBlend mode="normal" in="SourceGraphic" in2="BackgroundImageFix" result="shape" />
            <feGaussianBlur stdDeviation="26.0054" result="effect1_foregroundBlur_3613_8053" />
        </filter>
        <filter id="filter1_f_3613_8053" x="-522.368" y="-299.64" width="833.002" height="491.231"
            filterUnits="userSpaceOnUse" color-interpolation-filters="sRGB">
            <feFlood flood-opacity="0" result="BackgroundImageFix" />
            <feBlend mode="normal" in="SourceGraphic" in2="BackgroundImageFix" result="shape" />
            <feGaussianBlur stdDeviation="26.0054" result="effect1_foregroundBlur_3613_8053" />
        </filter>
        <filter id="filter2_f_3613_8053" x="-251.509" y="-147.357" width="642.212" height="504.153"
            filterUnits="userSpaceOnUse" color-interpolation-filters="sRGB">
            <feFlood flood-opacity="0" result="BackgroundImageFix" />
            <feBlend mode="normal" in="SourceGraphic" in2="BackgroundImageFix" result="shape" />
            <feGaussianBlur stdDeviation="13.0027" result="effect1_foregroundBlur_3613_8053" />
        </filter>
        <radialGradient id="paint0_radial_3613_8053" cx="0" cy="0" r="1"
            gradientUnits="userSpaceOnUse"
            gradientTransform="translate(-172.206 22.7781) rotate(90) scale(186.583 383.971)">
            <stop stop-color="#5A10EF" />
            <stop offset="1" stop-color="#5A10EF" stop-opacity="0" />
        </radialGradient>
        <radialGradient id="paint1_radial_3613_8053" cx="0" cy="0" r="1"
            gradientUnits="userSpaceOnUse"
            gradientTransform="translate(-50.6094 178.736) rotate(-147.393) scale(242.206 1180.73)">
            <stop stop-color="#37E2B4" stop-opacity="0.7" />
            <stop offset="0.410963" stop-color="#37E2B4" stop-opacity="0" />
        </radialGradient>
        <radialGradient id="paint2_radial_3613_8053" cx="0" cy="0" r="1"
            gradientUnits="userSpaceOnUse"
            gradientTransform="translate(69.5963 121.517) rotate(-49.0214) scale(322.599 158.435)">
            <stop stop-color="#37E2B4" />
            <stop offset="0.75" stop-color="#37E2B4" stop-opacity="0" />
        </radialGradient>
    </defs>
</svg>