<svg width="228" height="40" viewBox="0 0 228 40" fill="none" xmlns="http://www.w3.org/2000/svg">
<path d="M3.10139 32.0487L13.2634 26.9791C18.3392 24.4469 24.3108 24.4513 29.383 26.9908L39.5308 32.0716C37.5478 35.4187 34.6681 38.172 31.2227 40.0006L25.6969 37.2217C22.964 35.8473 19.743 35.8415 17.0051 37.206L11.4108 39.9941C7.96288 38.1613 5.08245 35.4022 3.10139 32.0487Z" fill="#8A6FF6"/>
<path fill-rule="evenodd" clip-rule="evenodd" d="M10.4452 3.16508L10.4456 7.10626C10.4458 10.2597 8.6635 13.1423 5.84232 14.5512L0.573959 17.1822C0.310174 18.5165 0.171875 19.8958 0.171875 21.3074C0.171875 24.1844 0.746334 26.9272 1.7868 29.4274L11.3529 24.6443C16.506 22.0677 20.0578 17.2213 21.0422 11.6681C21.066 11.5343 21.1816 11.4356 21.3175 11.4356C21.4534 11.4356 21.5691 11.5343 21.5928 11.6681C22.5772 17.2213 26.129 22.0677 31.2822 24.6443L40.8483 29.4274C41.8887 26.9272 42.4632 24.1844 42.4632 21.3074C42.4632 19.8958 42.3249 18.5165 42.0611 17.1822L36.7927 14.5512C33.9716 13.1423 32.1892 10.2597 32.1895 7.10626L32.1898 3.16508C29.0129 1.25652 25.2934 0.158819 21.3175 0.158203C17.3417 0.158817 13.6222 1.25652 10.4452 3.16508Z" fill="#8A6FF6"/>
<path d="M3.10231 32.0476L13.2641 26.9781C18.3399 24.446 24.3114 24.4503 29.3835 26.9898L39.531 32.0705C37.5481 35.4176 34.6685 38.1708 31.2231 39.9994L25.6974 37.2205C22.9645 35.8461 19.7436 35.8403 17.0058 37.2048L11.4115 39.9929C7.96372 38.1602 5.08334 35.4011 3.10231 32.0476Z" fill="#8A6FF6"/>
<path fill-rule="evenodd" clip-rule="evenodd" d="M10.446 3.16453L10.4464 7.10564C10.4466 10.259 8.66432 13.1416 5.84319 14.5505L0.574928 17.1814C0.311148 18.5156 0.172852 19.8949 0.172852 21.3065C0.172852 24.1834 0.7473 26.9262 1.78775 29.4263L11.3537 24.6434C16.5067 22.0668 20.0585 17.2205 21.0428 11.6674C21.0666 11.5336 21.1822 11.4349 21.3181 11.4349C21.454 11.4349 21.5697 11.5336 21.5934 11.6674C22.5778 17.2205 26.1295 22.0668 31.2826 24.6434L40.8485 29.4263C41.8889 26.9262 42.4634 24.1834 42.4634 21.3065C42.4634 19.8949 42.3251 18.5156 42.0613 17.1814L36.793 14.5505C33.9719 13.1416 32.1896 10.259 32.1899 7.10564L32.1902 3.16453C29.0134 1.25601 25.2939 0.158331 21.3181 0.157715C17.3423 0.158329 13.6229 1.25601 10.446 3.16453Z" fill="#8A6FF6"/>
<g opacity="0.8">
<mask id="mask0_178_711" style="mask-type:alpha" maskUnits="userSpaceOnUse" x="0" y="0" width="43" height="40">
<path d="M3.10134 32.0481L13.2632 26.9786C18.3389 24.4465 24.3104 24.4508 29.3825 26.9903L39.53 32.071C37.5471 35.4181 34.6675 38.1713 31.2221 39.9999L25.6965 37.221C22.9635 35.8466 19.7427 35.8408 17.0048 37.2053L11.4106 39.9934C7.96274 38.1606 5.08236 35.4016 3.10134 32.0481Z" fill="#8A6FF6"/>
<path fill-rule="evenodd" clip-rule="evenodd" d="M10.445 3.16502L10.4454 7.10613C10.4457 10.2595 8.66335 13.1421 5.84221 14.551L0.573952 17.1819C0.310172 18.5161 0.171875 19.8954 0.171875 21.307C0.171875 24.1839 0.746324 26.9267 1.78677 29.4268L11.3527 24.6438C16.5057 22.0673 20.0575 17.221 21.0419 11.6679C21.0656 11.5341 21.1813 11.4354 21.3171 11.4354C21.453 11.4354 21.5687 11.5341 21.5924 11.6679C22.5768 17.221 26.1285 22.0673 31.2816 24.6438L40.8475 29.4268C41.888 26.9267 42.4624 24.1839 42.4624 21.307C42.4624 19.8954 42.3241 18.5161 42.0603 17.1819L36.7921 14.551C33.9709 13.1421 32.1886 10.2595 32.1889 7.10613L32.1892 3.16502C29.0124 1.2565 25.2929 0.158819 21.3172 0.158203C17.3414 0.158817 13.6219 1.2565 10.445 3.16502Z" fill="#8A6FF6"/>
</mask>
<g mask="url(#mask0_178_711)">
<g style="mix-blend-mode:overlay">
<g filter="url(#filter0_f_178_711)">
<path d="M104.561 -67.8621L104.561 101.397L104.561 154.632L-364.315 154.632C-359.765 131.199 -331.145 84.3346 -253.068 84.3346C-155.471 84.3346 -103.942 84.3345 -43.5412 -5.75495C-1.90115 -67.862 68.1607 -68.5446 104.561 -67.8621Z" fill="url(#paint0_radial_178_711)"/>
</g>
<g filter="url(#filter1_f_178_711)">
<path d="M48.6244 -2.78801C132.728 -16.9123 181.575 -128.516 195.485 -182.552L195.485 103.144L-355.043 103.145C-351.565 83.8841 -341.4 41.6716 -328.559 26.9052C-249.913 -62.9769 -56.5056 14.8674 48.6244 -2.78801Z" fill="url(#paint1_radial_178_711)" fill-opacity="0.8"/>
</g>
<g filter="url(#filter2_f_178_711)">
<path d="M193.198 -89.3791L-170.129 95.0879L-20.9882 244.229L275.593 -52.3525L193.198 -89.3791Z" fill="url(#paint2_radial_178_711)"/>
</g>
</g>
</g>
</g>
<path d="M55.3701 36.7893C53.0626 36.7896 51.7277 34.1736 53.0819 32.3053L68.6912 10.7701H52.6293V5.70488L72.816 5.70706C75.1226 5.7073 76.4566 8.32261 75.1037 10.1908C69.7043 17.6464 65.4536 23.5145 59.5105 31.7216H75.6617V36.7868L55.3701 36.7893Z" fill="white"/>
<path fill-rule="evenodd" clip-rule="evenodd" d="M83.5222 35.5583C85.8246 36.9014 88.5107 37.5729 91.5805 37.5729C94.5928 37.5729 97.3173 36.815 99.7539 35.2993C101.982 33.9243 103.696 32.0362 104.898 29.6349L99.7793 27.0755C98.9737 28.7412 97.8524 30.0243 96.4155 30.9248C94.9765 31.8074 93.2785 32.2487 91.3215 32.2487C88.3668 32.2487 86.1028 31.2893 84.5295 29.3707C83.1998 27.733 82.4321 25.5266 82.2262 22.7514H105.711C105.903 19.0484 105.443 15.8539 104.33 13.1678C103.217 10.4817 101.557 8.40957 99.351 6.95141C97.1446 5.49324 94.468 4.76416 91.3215 4.76416C88.29 4.76416 85.6423 5.44528 83.3783 6.80751C81.1143 8.16974 79.3492 10.098 78.0829 12.5922C76.8357 15.0673 76.2122 18.0028 76.2122 21.3988C76.2122 24.6221 76.8549 27.4521 78.1404 29.8887C79.4259 32.3062 81.2198 34.1961 83.5222 35.5583ZM99.9072 18.3193C99.634 15.801 98.9498 13.8536 97.8545 12.4771C96.4539 10.6736 94.3433 9.77181 91.5229 9.77181C88.4339 9.77181 86.1028 10.7503 84.5295 12.7073C83.3898 14.125 82.6629 15.9956 82.3488 18.3193H99.9072Z" fill="white"/>
<path fill-rule="evenodd" clip-rule="evenodd" d="M145.695 35.5583C147.997 36.9014 150.683 37.5729 153.753 37.5729C156.765 37.5729 159.49 36.815 161.926 35.2993C164.154 33.9243 165.869 32.0362 167.07 29.6349L161.952 27.0755C161.146 28.7412 160.025 30.0243 158.588 30.9248C157.149 31.8074 155.451 32.2487 153.494 32.2487C150.539 32.2487 148.275 31.2893 146.702 29.3707C145.372 27.733 144.604 25.5266 144.399 22.7514H167.884C168.076 19.0484 167.615 15.8539 166.502 13.1678C165.389 10.4817 163.73 8.40957 161.523 6.95141C159.317 5.49324 156.64 4.76416 153.494 4.76416C150.462 4.76416 147.815 5.44528 145.551 6.80751C143.287 8.16974 141.522 10.098 140.255 12.5922C139.008 15.0673 138.385 18.0028 138.385 21.3988C138.385 24.6221 139.027 27.4521 140.313 29.8887C141.598 32.3062 143.392 34.1961 145.695 35.5583ZM162.08 18.3193C161.806 15.801 161.122 13.8536 160.027 12.4771C158.626 10.6736 156.516 9.77181 153.695 9.77181C150.606 9.77181 148.275 10.7503 146.702 12.7073C145.562 14.125 144.835 15.9956 144.521 18.3193H162.08Z" fill="white"/>
<path fill-rule="evenodd" clip-rule="evenodd" d="M204.908 36.3899C206.481 37.2341 208.419 37.6562 210.721 37.6562C213.657 37.6562 216.142 37.0518 218.175 35.8431C219.282 35.1075 220.752 33.807 221.656 32.0459C221.747 31.8698 222.061 31.9327 222.061 32.1307V36.7928H227.039V17.5968C227.039 16.3497 226.982 15.1601 226.867 14.0281C226.752 12.8962 226.454 11.8313 225.975 10.8336C225.054 8.79986 223.567 7.29373 221.514 6.31522C219.461 5.33671 217.043 4.84746 214.261 4.84746C210.693 4.84746 207.834 5.6341 205.685 7.20739C203.776 8.58767 202.42 10.422 201.617 12.7103L206.607 15.2054C207.163 13.3841 208.132 12.0707 209.513 11.2653C210.894 10.4595 212.458 10.0566 214.204 10.0566C216.909 10.0566 218.809 10.6801 219.902 11.9272C220.259 12.3267 220.556 12.7941 220.794 13.3293C221.618 15.1789 219.982 17.0192 217.974 17.2802C216.074 17.5297 214.233 17.8079 212.448 18.1149C210.664 18.4218 209.071 18.7768 207.671 19.1797C206.078 19.6785 204.726 20.3405 203.613 21.1655C202.5 21.9713 201.646 22.9786 201.052 24.1873C200.476 25.3769 200.188 26.7679 200.188 28.3604C200.188 30.0296 200.581 31.5741 201.368 32.9939C202.174 34.3945 203.354 35.5265 204.908 36.3899ZM216.218 32.0729C214.952 32.7061 213.427 33.0227 211.642 33.0227C210.28 33.0227 209.167 32.802 208.304 32.3607C207.441 31.9195 206.798 31.3439 206.376 30.634C205.973 29.9049 205.771 29.1278 205.771 28.3028C205.771 27.4203 205.973 26.672 206.376 26.058C206.779 25.4441 207.325 24.9356 208.016 24.5327C208.707 24.1106 209.465 23.7556 210.29 23.4679C211.345 23.1609 212.535 22.8923 213.858 22.662C215.201 22.4318 216.66 22.2111 218.233 22.0001C219.251 21.8529 220.312 21.6979 221.416 21.535C221.407 22.0299 221.391 22.6071 221.37 23.2664C221.332 24.4368 221.159 25.4824 220.852 26.4034C220.622 27.5354 220.113 28.6098 219.327 29.6267C218.54 30.6244 217.504 31.4398 216.218 32.0729Z" fill="white"/>
<path d="M185.335 37.5729C182.169 37.5729 179.474 36.863 177.248 35.4432C175.042 34.0234 173.353 32.0856 172.183 29.6297C171.012 27.1547 170.418 24.3343 170.399 21.1685C170.418 17.9452 171.022 15.1056 172.212 12.6498C173.42 10.1747 175.138 8.24649 177.363 6.86507C179.589 5.46446 182.265 4.76416 185.393 4.76416C188.75 4.76416 191.619 5.59877 193.998 7.26798C196.082 8.70175 197.557 10.5991 198.424 12.96L193.166 15.5977C192.549 13.8681 191.541 12.5209 190.141 11.5561C188.741 10.5776 187.139 10.0884 185.335 10.0884C183.301 10.0884 181.623 10.568 180.299 11.5274C178.975 12.4675 177.987 13.7722 177.334 15.4414C176.701 17.1106 176.375 19.0196 176.356 21.1685C176.394 24.4878 177.162 27.1643 178.658 29.198C180.155 31.2318 182.38 32.2487 185.335 32.2487C187.311 32.2487 188.933 31.7978 190.199 30.896C191.465 29.9943 192.424 28.68 193.077 26.9532L193.125 26.9652L198.306 29.5639C197.26 31.9589 195.738 33.8419 193.739 35.213C191.417 36.7862 188.616 37.5729 185.335 37.5729Z" fill="white"/>
<path d="M130.214 21.3929V36.79H135.912V19.551C135.912 18.4958 135.816 17.3254 135.624 16.0399C135.432 14.7352 135.077 13.4305 134.559 12.1259C134.061 10.8212 133.351 9.62205 132.43 8.52843C131.509 7.4348 130.319 6.55223 128.861 5.88071C127.422 5.20918 125.657 4.87342 123.566 4.87342C120.841 4.87342 118.491 5.4682 116.515 6.65775C115.198 7.56691 114.347 8.58141 113.823 9.66941C113.731 9.8617 113.263 9.78774 113.263 9.57433V5.70803H108.226V36.7976H113.924V20.5295C113.924 18.7068 114.126 17.1431 114.529 15.8384C114.951 14.5338 115.527 13.4689 116.256 12.6439C116.985 11.8189 117.848 11.2049 118.846 10.802C119.843 10.3991 120.927 10.1976 122.098 10.1976C123.748 10.1976 125.101 10.5334 126.156 11.2049C127.211 11.8573 128.036 12.7302 128.631 13.8239C129.226 14.9175 129.638 16.1262 129.868 17.4501C130.099 18.7548 130.214 20.069 130.214 21.3929Z" fill="white"/>
<defs>
<filter id="filter0_f_178_711" x="-416.325" y="-119.981" width="572.897" height="326.623" filterUnits="userSpaceOnUse" color-interpolation-filters="sRGB">
<feFlood flood-opacity="0" result="BackgroundImageFix"/>
<feBlend mode="normal" in="SourceGraphic" in2="BackgroundImageFix" result="shape"/>
<feGaussianBlur stdDeviation="26.0054" result="effect1_foregroundBlur_178_711"/>
</filter>
<filter id="filter1_f_178_711" x="-407.054" y="-234.563" width="654.55" height="389.718" filterUnits="userSpaceOnUse" color-interpolation-filters="sRGB">
<feFlood flood-opacity="0" result="BackgroundImageFix"/>
<feBlend mode="normal" in="SourceGraphic" in2="BackgroundImageFix" result="shape"/>
<feGaussianBlur stdDeviation="26.0054" result="effect1_foregroundBlur_178_711"/>
</filter>
<filter id="filter2_f_178_711" x="-196.134" y="-115.384" width="497.733" height="385.618" filterUnits="userSpaceOnUse" color-interpolation-filters="sRGB">
<feFlood flood-opacity="0" result="BackgroundImageFix"/>
<feBlend mode="normal" in="SourceGraphic" in2="BackgroundImageFix" result="shape"/>
<feGaussianBlur stdDeviation="13.0027" result="effect1_foregroundBlur_178_711"/>
</filter>
<radialGradient id="paint0_radial_178_711" cx="0" cy="0" r="1" gradientUnits="userSpaceOnUse" gradientTransform="translate(-129.877 16.9642) rotate(90) scale(137.668 289.975)">
<stop stop-color="#5A10EF"/>
<stop offset="1" stop-color="#5A10EF" stop-opacity="0"/>
</radialGradient>
<radialGradient id="paint1_radial_178_711" cx="0" cy="0" r="1" gradientUnits="userSpaceOnUse" gradientTransform="translate(-38.0476 132.035) rotate(-147.995) scale(181.703 876.996)">
<stop stop-color="#37E2B4" stop-opacity="0.7"/>
<stop offset="0.410963" stop-color="#37E2B4" stop-opacity="0"/>
</radialGradient>
<radialGradient id="paint2_radial_178_711" cx="0" cy="0" r="1" gradientUnits="userSpaceOnUse" gradientTransform="translate(52.7319 89.8181) rotate(-48.3605) scale(240.451 118.444)">
<stop stop-color="#37E2B4"/>
<stop offset="0.75" stop-color="#37E2B4" stop-opacity="0"/>
</radialGradient>
</defs>
</svg>
