<svg width="71" height="16" viewBox="0 0 71 16" fill="none" xmlns="http://www.w3.org/2000/svg">
<path d="M1.53535 14.8627C0.608699 14.8628 0.0725991 13.8123 0.616428 13.062L6.88485 4.41383H0.434663V2.37973L8.54127 2.3806C9.46756 2.3807 10.0033 3.43096 9.45997 4.18119C7.2917 7.17522 5.58469 9.53174 3.19805 12.8276H9.68407V14.8617L1.53535 14.8627Z" fill="white"/>
<path fill-rule="evenodd" clip-rule="evenodd" d="M12.8407 14.3683C13.7653 14.9077 14.844 15.1773 16.0768 15.1773C17.2864 15.1773 18.3806 14.873 19.3591 14.2643C20.2537 13.7121 20.9423 12.9539 21.4249 11.9896L19.3692 10.9618C19.0457 11.6307 18.5955 12.146 18.0184 12.5076C17.4405 12.862 16.7586 13.0392 15.9727 13.0392C14.7862 13.0392 13.877 12.654 13.2452 11.8835C12.7113 11.2258 12.4029 10.3398 12.3202 9.2253H21.7514C21.8285 7.73825 21.6436 6.45539 21.1967 5.3767C20.7498 4.29801 20.0833 3.46588 19.1973 2.88031C18.3112 2.29474 17.2363 2.00195 15.9727 2.00195C14.7554 2.00195 13.6921 2.27548 12.7829 2.82253C11.8737 3.36957 11.1649 4.14392 10.6564 5.14555C10.1555 6.13949 9.90513 7.31834 9.90513 8.68211C9.90513 9.97653 10.1632 11.113 10.6795 12.0915C11.1957 13.0623 11.9161 13.8213 12.8407 14.3683ZM19.4206 7.44547C19.3109 6.43415 19.0361 5.65211 18.5963 5.09932C18.0338 4.37506 17.1863 4.01293 16.0536 4.01293C14.8132 4.01293 13.877 4.40588 13.2452 5.19178C12.7875 5.76108 12.4956 6.5123 12.3695 7.44547H19.4206Z" fill="white"/>
<path fill-rule="evenodd" clip-rule="evenodd" d="M37.808 14.3683C38.7326 14.9077 39.8113 15.1773 41.0441 15.1773C42.2537 15.1773 43.3479 14.873 44.3264 14.2643C45.221 13.7121 45.9096 12.9539 46.3922 11.9896L44.3366 10.9618C44.013 11.6307 43.5628 12.146 42.9857 12.5076C42.4079 12.862 41.726 13.0392 40.9401 13.0392C39.7535 13.0392 38.8443 12.654 38.2125 11.8835C37.6786 11.2258 37.3702 10.3398 37.2875 9.2253H46.7188C46.7958 7.73825 46.6109 6.45539 46.164 5.3767C45.7171 4.29801 45.0506 3.46588 44.1646 2.88031C43.2785 2.29474 42.2037 2.00195 40.9401 2.00195C39.7227 2.00195 38.6594 2.27548 37.7502 2.82253C36.841 3.36957 36.1322 4.14392 35.6237 5.14555C35.1229 6.13949 34.8724 7.31834 34.8724 8.68211C34.8724 9.97653 35.1306 11.113 35.6468 12.0915C36.163 13.0623 36.8834 13.8213 37.808 14.3683ZM44.3879 7.44547C44.2782 6.43415 44.0034 5.65211 43.5636 5.09932C43.0011 4.37506 42.1536 4.01293 41.021 4.01293C39.7805 4.01293 38.8443 4.40588 38.2125 5.19178C37.7549 5.76108 37.4629 6.5123 37.3368 7.44547H44.3879Z" fill="white"/>
<path fill-rule="evenodd" clip-rule="evenodd" d="M61.587 14.7023C62.2188 15.0413 62.997 15.2108 63.9216 15.2108C65.1005 15.2108 66.0982 14.9681 66.915 14.4827C67.3594 14.1873 67.9495 13.665 68.3128 12.9578C68.3491 12.8871 68.4752 12.9124 68.4752 12.9919V14.8641H70.4746V7.15531C70.4746 6.6545 70.4515 6.17679 70.4053 5.7222C70.3591 5.26761 70.2396 4.83999 70.047 4.43934C69.6772 3.62262 69.08 3.01778 68.2556 2.62483C67.4312 2.23188 66.4604 2.03541 65.3432 2.03541C63.91 2.03541 62.762 2.35131 61.8991 2.98311C61.1326 3.5374 60.588 4.27403 60.2653 5.19299L62.2692 6.19497C62.4927 5.46357 62.8817 4.93614 63.4362 4.6127C63.9909 4.28909 64.6189 4.12729 65.32 4.12729C66.4064 4.12729 67.1692 4.3777 67.6084 4.87852C67.7515 5.03893 67.871 5.22662 67.9667 5.44158C68.2974 6.18431 67.6403 6.92337 66.834 7.02818C66.0713 7.12835 65.3316 7.24007 64.615 7.36335C63.8985 7.48663 63.259 7.62917 62.6965 7.79097C62.057 7.9913 61.5138 8.25712 61.0669 8.58843C60.6201 8.91203 60.2772 9.31654 60.0383 9.80195C59.8072 10.2797 59.6916 10.8383 59.6916 11.4778C59.6916 12.1481 59.8496 12.7683 60.1655 13.3385C60.4891 13.901 60.9629 14.3555 61.587 14.7023ZM66.1291 12.9687C65.6205 13.2229 65.008 13.3501 64.2914 13.3501C63.7444 13.3501 63.2975 13.2615 62.9508 13.0842C62.6041 12.907 62.346 12.6759 62.1764 12.3908C62.0146 12.098 61.9337 11.786 61.9337 11.4547C61.9337 11.1002 62.0146 10.7997 62.1764 10.5532C62.3382 10.3066 62.5578 10.1024 62.8352 9.94064C63.1126 9.77113 63.4169 9.62859 63.7482 9.51302C64.172 9.38974 64.6497 9.28187 65.1814 9.18941C65.7207 9.09695 66.3063 9.00835 66.9381 8.92359C67.3469 8.86448 67.7731 8.80223 68.2165 8.73682C68.2127 8.93557 68.2065 9.16734 68.1978 9.43211C68.1824 9.90211 68.1131 10.322 67.9898 10.6919C67.8973 11.1465 67.6932 11.5779 67.3773 11.9863C67.0614 12.3869 66.6453 12.7144 66.1291 12.9687Z" fill="white"/>
<path d="M53.7269 15.1773C52.4556 15.1773 51.3731 14.8923 50.4793 14.3221C49.5932 13.7519 48.9152 12.9737 48.4452 11.9875C47.9752 10.9936 47.7364 9.86096 47.7286 8.58965C47.7364 7.29522 47.9791 6.1549 48.4568 5.16867C48.9422 4.17474 49.6318 3.40039 50.5255 2.84564C51.4193 2.28318 52.4941 2.00195 53.75 2.00195C55.0984 2.00195 56.2503 2.33712 57.2057 3.00744C58.0426 3.58322 58.6351 4.34515 58.9833 5.29324L56.8716 6.35251C56.6241 5.65795 56.2192 5.11694 55.657 4.72949C55.0945 4.33654 54.4512 4.14006 53.7269 4.14006C52.9102 4.14006 52.236 4.33269 51.7044 4.71793C51.1727 5.09547 50.7759 5.61941 50.514 6.28973C50.2597 6.96006 50.1287 7.7267 50.121 8.58965C50.1364 9.9226 50.4446 10.9974 51.0456 11.8141C51.6466 12.6309 52.5404 13.0392 53.7269 13.0392C54.5205 13.0392 55.1716 12.8582 55.6801 12.496C56.1886 12.1339 56.5739 11.6061 56.8358 10.9127L56.8553 10.9175L58.9357 11.9611C58.5157 12.9229 57.9043 13.6791 57.1017 14.2296C56.1694 14.8614 55.0445 15.1773 53.7269 15.1773Z" fill="white"/>
<path d="M31.5912 8.67975V14.8629H33.8795V7.94008C33.8795 7.51631 33.841 7.04631 33.7639 6.53008C33.6869 6.00615 33.5444 5.48222 33.3363 4.95828C33.136 4.43435 32.8509 3.95279 32.4811 3.51361C32.1112 3.07443 31.6335 2.72001 31.048 2.45034C30.4701 2.18067 29.7612 2.04583 28.9214 2.04583C27.8273 2.04583 26.8835 2.28468 26.0899 2.76239C25.561 3.12748 25.2194 3.53489 25.0091 3.97181C24.9719 4.04903 24.7839 4.01933 24.7839 3.93363V2.38099H22.7613V14.866H25.0497V8.33303C25.0497 7.60107 25.1306 6.97312 25.2924 6.44918C25.4619 5.92525 25.6931 5.49763 25.9858 5.16632C26.2786 4.83501 26.6253 4.58845 27.026 4.42665C27.4267 4.26484 27.862 4.18394 28.332 4.18394C28.9946 4.18394 29.5378 4.31878 29.9616 4.58845C30.3853 4.85042 30.7167 5.20099 30.9555 5.64017C31.1944 6.07935 31.36 6.56476 31.4525 7.09639C31.5449 7.62033 31.5912 8.14811 31.5912 8.67975Z" fill="white"/>
</svg>
